{
  "accessors": [
    {
      "bufferView": 2,
      "componentType": 5126,
      "count": 270,
      "max": [
        2.1664700508117676,
        0.32164999842643738,
        2.2679800987243652
      ],
      "min": [
        -2.1664700508117676,
        -0.32164999842643738,
        -1.7201700210571289
      ],
      "type": "VEC3"
    },
    {
      "bufferView": 2,
      "byteOffset": 3240,
      "componentType": 5126,
      "count": 270,
      "max": [
        1,
        1,
        1
      ],
      "min": [
        -1,
        -1,
        -1
      ],
      "type": "VEC3"
    },
    {
      "bufferView": 3,
      "componentType": 5126,
      "count": 270,
      "max": [
        0.9868590235710144,
        0.95222252607345581,
        0.69090187549591064,
        1
      ],
      "min": [
        -0.9868590235710144,
        -0.99910348653793335,
        -0.98980867862701416,
        -1
      ],
      "type": "VEC4"
    },
    {
      "bufferView": 1,
      "componentType": 5126,
      "count": 270,
      "max": [
        0.98580998182296753,
        0.99492001533508301
      ],
      "min": [
        0.65750998258590698,
        0.0070199999026954174
      ],
      "type": "VEC2"
    },
    {
      "bufferView": 0,
      "componentType": 5125,
      "count": 1536,
      "max": [
        269
      ],
      "min": [
        0
      ],
      "type": "SCALAR"
    },
    {
      "bufferView": 2,
      "byteOffset": 6480,
      "componentType": 5126,
      "count": 82,
      "max": [
        1.079509973526001,
        -0.70450997352600098,
        1.4142500162124634
      ],
      "min": [
        -1.079509973526001,
        -1,
        -1.2998700141906738
      ],
      "type": "VEC3"
    },
    {
      "bufferView": 2,
      "byteOffset": 7464,
      "componentType": 5126,
      "count": 82,
      "max": [
        0.9646640419960022,
        0.9999958872795105,
        0.9842643141746521
      ],
      "min": [
        -0.9646640419960022,
        -0.99656367301940918,
        -0.93360781669616699
      ],
      "type": "VEC3"
    },
    {
      "bufferView": 3,
      "byteOffset": 4320,
      "componentType": 5126,
      "count": 82,
      "max": [
        1,
        0.95686346292495728,
        0.72567594051361084,
        1
      ],
      "min": [
        -0.54585212469100952,
        -0.956856369972229,
        -0.72568827867507935,
        -1
      ],
      "type": "VEC4"
    },
    {
      "bufferView": 1,
      "byteOffset": 2160,
      "componentType": 5126,
      "count": 82,
      "max": [
        0.49522998929023743,
        0.79277002811431885
      ],
      "min": [
        0.008410000242292881,
        0.1638299971818924
      ],
      "type": "VEC2"
    },
    {
      "bufferView": 0,
      "byteOffset": 6144,
      "componentType": 5125,
      "count": 480,
      "max": [
        81
      ],
      "min": [
        0
      ],
      "type": "SCALAR"
    }
  ],
  "asset": {
    "extras": {
      "author": "jose.ranieri (https://sketchfab.com/jose.ranieri)",
      "license": "CC-BY-4.0 (http://creativecommons.org/licenses/by/4.0/)",
      "source": "https://sketchfab.com/models/bc15ab41b2b443f79574531eca830514",
      "title": "Sword and shield"
    },
    "generator": "Sketchfab-3.18.2",
    "version": "2.0"
  },
  "bufferViews": [
    {
      "buffer": 0,
      "byteLength": 8064,
      "byteOffset": 0,
      "name": "floatBufferViews",
      "target": 34963
    },
    {
      "buffer": 0,
      "byteLength": 2816,
      "byteOffset": 8064,
      "byteStride": 8,
      "name": "floatBufferViews",
      "target": 34962
    },
    {
      "buffer": 0,
      "byteLength": 8448,
      "byteOffset": 10880,
      "byteStride": 12,
      "name": "floatBufferViews",
      "target": 34962
    },
    {
      "buffer": 0,
      "byteLength": 5632,
      "byteOffset": 19328,
      "byteStride": 16,
      "name": "floatBufferViews",
      "target": 34962
    }
  ],
  "buffers": [
    {
      "byteLength": 24960,
      "uri": "scene.bin"
    }
  ],
  "images": [
    {
      "uri": "textures/Material_baseColor.png"
    }
  ],
  "materials": [
    {
      "doubleSided": true,
      "emissiveFactor": [
        0,
        0,
        0
      ],
      "name": "Material",
      "pbrMetallicRoughness": {
        "baseColorFactor": [
          1,
          1,
          1,
          1
        ],
        "baseColorTexture": {
          "index": 0,
          "texCoord": 0
        },
        "metallicFactor": 0,
        "roughnessFactor": 0.59999999999999998
      }
    }
  ],
  "meshes": [
    {
      "name": "Cube_0",
      "primitives": [
        {
          "attributes": {
            "NORMAL": 1,
            "POSITION": 0,
            "TANGENT": 2,
            "TEXCOORD_0": 3
          },
          "indices": 4,
          "material": 0,
          "mode": 4
        }
      ]
    },
    {
      "name": "Cube.001_0",
      "primitives": [
        {
          "attributes": {
            "NORMAL": 6,
            "POSITION": 5,
            "TANGENT": 7,
            "TEXCOORD_0": 8
          },
          "indices": 9,
          "material": 0,
          "mode": 4
        }
      ]
    }
  ],
  "nodes": [
    {
      "children": [
        1
      ],
      "name": "RootNode (gltf orientation matrix)",
      "rotation": [
        -0.70710678118654746,
        -0,
        -0,
        0.70710678118654757
      ]
    },
    {
      "children": [
        2
      ],
      "name": "RootNode (model correction matrix)"
    },
    {
      "children": [
        3,
        5,
        7,
        9,
        11,
        13,
        15,
        17,
        19,
        21
      ],
      "name": "Root"
    },
    {
      "children": [
        4
      ],
      "matrix": [
        -0.37119000000000002,
        1.2189399999999999,
        -0.070430000000000006,
        0,
        -0.98404000000000003,
        -0.25508000000000003,
        0.77145999999999992,
        0,
        0.72280000000000011,
        0.2787,
        1.0141199999999999,
        0,
        4.2515499999999999,
        -4.07918,
        3.2122199999999999,
        1
      ],
      "name": "Lamp"
    },
    {
      "name": "Lamp"
    },
    {
      "children": [
        6
      ],
      "name": "Cube"
    },
    {
      "mesh": 0,
      "name": "Cube_0"
    },
    {
      "children": [
        8
      ],
      "name": "Cube.001"
    },
    {
      "mesh": 1,
      "name": "Cube.001_0"
    },
    {
      "children": [
        10
      ],
      "matrix": [
        -0.37119000000000002,
        1.2189399999999999,
        -0.070430000000000006,
        0,
        -0.98404000000000003,
        -0.25508000000000003,
        0.77145999999999992,
        0,
        0.72280000000000011,
        0.2787,
        1.0141199999999999,
        0,
        -3.5745499999999999,
        -4.07918,
        3.2122199999999999,
        1
      ],
      "name": "Lamp.001"
    },
    {
      "name": "Lamp.001"
    },
    {
      "children": [
        12
      ],
      "matrix": [
        -0.37119000000000002,
        1.2189399999999999,
        -0.070430000000000006,
        0,
        -0.98404000000000003,
        -0.25508000000000003,
        0.77145999999999992,
        0,
        0.72280000000000011,
        0.2787,
        1.0141199999999999,
        0,
        -3.5745499999999999,
        4.4374000000000002,
        5.9038600000000008,
        1
      ],
      "name": "Lamp.002"
    },
    {
      "name": "Lamp.002"
    },
    {
      "children": [
        14
      ],
      "matrix": [
        -0.37119000000000002,
        1.2189399999999999,
        -0.070430000000000006,
        0,
        -0.98404000000000003,
        -0.25508000000000003,
        0.77145999999999992,
        0,
        0.72280000000000011,
        0.2787,
        1.0141199999999999,
        0,
        4.2515499999999999,
        4.4374000000000002,
        5.9038600000000008,
        1
      ],
      "name": "Lamp.003"
    },
    {
      "name": "Lamp.003"
    },
    {
      "children": [
        16
      ],
      "matrix": [
        -0.37119000000000002,
        1.2189399999999999,
        -0.070430000000000006,
        0,
        -0.98404000000000003,
        -0.25508000000000003,
        0.77145999999999992,
        0,
        0.72280000000000011,
        0.2787,
        1.0141199999999999,
        0,
        4.2515499999999999,
        4.4374000000000002,
        -6.2848799999999994,
        1
      ],
      "name": "Lamp.004"
    },
    {
      "name": "Lamp.004"
    },
    {
      "children": [
        18
      ],
      "matrix": [
        -0.37119000000000002,
        1.2189399999999999,
        -0.070430000000000006,
        0,
        -0.98404000000000003,
        -0.25508000000000003,
        0.77145999999999992,
        0,
        0.72280000000000011,
        0.2787,
        1.0141199999999999,
        0,
        -3.5745499999999999,
        4.4374000000000002,
        -6.2848799999999994,
        1
      ],
      "name": "Lamp.005"
    },
    {
      "name": "Lamp.005"
    },
    {
      "children": [
        20
      ],
      "matrix": [
        -0.37119000000000002,
        1.2189399999999999,
        -0.070430000000000006,
        0,
        -0.98404000000000003,
        -0.25508000000000003,
        0.77145999999999992,
        0,
        0.72280000000000011,
        0.2787,
        1.0141199999999999,
        0,
        -3.5745499999999999,
        -4.07918,
        -6.2848799999999994,
        1
      ],
      "name": "Lamp.006"
    },
    {
      "name": "Lamp.006"
    },
    {
      "children": [
        22
      ],
      "matrix": [
        -0.37119000000000002,
        1.2189399999999999,
        -0.070430000000000006,
        0,
        -0.98404000000000003,
        -0.25508000000000003,
        0.77145999999999992,
        0,
        0.72280000000000011,
        0.2787,
        1.0141199999999999,
        0,
        4.2515499999999999,
        -4.07918,
        -6.2848799999999994,
        1
      ],
      "name": "Lamp.007"
    },
    {
      "name": "Lamp.007"
    }
  ],
  "samplers": [
    {
      "magFilter": 9729,
      "minFilter": 9987,
      "wrapS": 10497,
      "wrapT": 10497
    }
  ],
  "scene": 0,
  "scenes": [
    {
      "name": "OSG_Scene",
      "nodes": [
        0
      ]
    }
  ],
  "textures": [
    {
      "sampler": 0,
      "source": 0
    }
  ]
}

