{
  "accessors": [
    {
      "bufferView": 2,
      "componentType": 5126,
      "count": 1899,
      "max": [
        0.43016999959945679,
        0.21221999824047089,
        1.4654799699783325
      ],
      "min": [
        -0.46689999103546143,
        -0.73941999673843384,
        0.38609999418258667
      ],
      "type": "VEC3"
    },
    {
      "bufferView": 2,
      "byteOffset": 22788,
      "componentType": 5126,
      "count": 1899,
      "max": [
        0.99878358840942383,
        0.99933475255966187,
        0.99922358989715576
      ],
      "min": [
        -0.99963963031768799,
        -0.99902701377868652,
        -0.99745935201644897
      ],
      "type": "VEC3"
    },
    {
      "bufferView": 3,
      "componentType": 5126,
      "count": 1899,
      "max": [
        0.99990767240524292,
        0.98743367195129395,
        0.99951618909835815,
        1
      ],
      "min": [
        -0.99280941486358643,
        -0.99863499402999878,
        -0.96229106187820435,
        -1
      ],
      "type": "VEC4"
    },
    {
      "bufferView": 1,
      "componentType": 5126,
      "count": 1899,
      "max": [
        0.97996997833251953,
        0.98641002178192139
      ],
      "min": [
        0.012710000388324261,
        0.020179999992251396
      ],
      "type": "VEC2"
    },
    {
      "bufferView": 0,
      "componentType": 5125,
      "count": 9120,
      "max": [
        1898
      ],
      "min": [
        0
      ],
      "type": "SCALAR"
    },
    {
      "bufferView": 2,
      "byteOffset": 45576,
      "componentType": 5126,
      "count": 4135,
      "max": [
        0.27226001024246216,
        -0.42243999242782593,
        1.275130033493042
      ],
      "min": [
        -0.15052999556064606,
        -0.72092002630233765,
        0.79739999771118164
      ],
      "type": "VEC3"
    },
    {
      "bufferView": 2,
      "byteOffset": 95196,
      "componentType": 5126,
      "count": 4135,
      "max": [
        0.9997326135635376,
        0.99921226501464844,
        0.9978489875793457
      ],
      "min": [
        -0.99990338087081909,
        -0.99975758790969849,
        -0.99957263469696045
      ],
      "type": "VEC3"
    },
    {
      "bufferView": 3,
      "byteOffset": 30384,
      "componentType": 5126,
      "count": 4135,
      "max": [
        0.99999380111694336,
        0.99925631284713745,
        0.98390573263168335,
        1
      ],
      "min": [
        -0.99990940093994141,
        -0.99950170516967773,
        -0.99984115362167358,
        -1
      ],
      "type": "VEC4"
    },
    {
      "bufferView": 1,
      "byteOffset": 15192,
      "componentType": 5126,
      "count": 4135,
      "max": [
        0.98869001865386963,
        0.99137997627258301
      ],
      "min": [
        0.0099600004032254219,
        0.0071999998763203621
      ],
      "type": "VEC2"
    },
    {
      "bufferView": 0,
      "byteOffset": 36480,
      "componentType": 5125,
      "count": 22476,
      "max": [
        4134
      ],
      "min": [
        0
      ],
      "type": "SCALAR"
    },
    {
      "bufferView": 2,
      "byteOffset": 144816,
      "componentType": 5126,
      "count": 4787,
      "max": [
        0.37035998702049255,
        0.58578997850418091,
        1.0697499513626099
      ],
      "min": [
        -0.33107998967170715,
        -0.91798001527786255,
        -0.04489000141620636
      ],
      "type": "VEC3"
    },
    {
      "bufferView": 2,
      "byteOffset": 202260,
      "componentType": 5126,
      "count": 4787,
      "max": [
        0.99976378679275513,
        0.99862062931060791,
        0.99996024370193481
      ],
      "min": [
        -0.99988335371017456,
        -0.99984276294708252,
        -0.99993038177490234
      ],
      "type": "VEC3"
    },
    {
      "bufferView": 3,
      "byteOffset": 96544,
      "componentType": 5126,
      "count": 4787,
      "max": [
        0.99999886751174927,
        0.99922788143157959,
        0.99975520372390747,
        1
      ],
      "min": [
        -0.99999159574508667,
        -0.99926036596298218,
        -0.9991072416305542,
        -1
      ],
      "type": "VEC4"
    },
    {
      "bufferView": 1,
      "byteOffset": 48272,
      "componentType": 5126,
      "count": 4787,
      "max": [
        0.98312997817993164,
        0.99993002414703369
      ],
      "min": [
        7.0000001869630069e-05,
        7.0000001869630069e-05
      ],
      "type": "VEC2"
    },
    {
      "bufferView": 0,
      "byteOffset": 126384,
      "componentType": 5125,
      "count": 24912,
      "max": [
        4786
      ],
      "min": [
        0
      ],
      "type": "SCALAR"
    },
    {
      "bufferView": 2,
      "byteOffset": 259704,
      "componentType": 5126,
      "count": 24,
      "max": [
        1,
        1,
        1
      ],
      "min": [
        -1,
        -1,
        -1
      ],
      "type": "VEC3"
    },
    {
      "bufferView": 2,
      "byteOffset": 259992,
      "componentType": 5126,
      "count": 24,
      "max": [
        1,
        1,
        1
      ],
      "min": [
        -1,
        -1,
        -1
      ],
      "type": "VEC3"
    },
    {
      "bufferView": 3,
      "byteOffset": 173136,
      "componentType": 5126,
      "count": 24,
      "max": [
        0,
        1,
        0,
        1
      ],
      "min": [
        -1,
        0,
        -1,
        1
      ],
      "type": "VEC4"
    },
    {
      "bufferView": 1,
      "byteOffset": 86568,
      "componentType": 5126,
      "count": 24,
      "max": [
        0.98214000463485718,
        0.98214000463485718
      ],
      "min": [
        0.017859999090433121,
        0.017859999090433121
      ],
      "type": "VEC2"
    },
    {
      "bufferView": 0,
      "byteOffset": 226032,
      "componentType": 5125,
      "count": 36,
      "max": [
        23
      ],
      "min": [
        0
      ],
      "type": "SCALAR"
    },
    {
      "bufferView": 2,
      "byteOffset": 260280,
      "componentType": 5126,
      "count": 4,
      "max": [
        1,
        1,
        0
      ],
      "min": [
        -1,
        -1,
        0
      ],
      "type": "VEC3"
    },
    {
      "bufferView": 2,
      "byteOffset": 260328,
      "componentType": 5126,
      "count": 4,
      "max": [
        0,
        0,
        1
      ],
      "min": [
        0,
        0,
        1
      ],
      "type": "VEC3"
    },
    {
      "bufferView": 3,
      "byteOffset": 173520,
      "componentType": 5126,
      "count": 4,
      "max": [
        1,
        0,
        0,
        1
      ],
      "min": [
        1,
        0,
        0,
        1
      ],
      "type": "VEC4"
    },
    {
      "bufferView": 1,
      "byteOffset": 86760,
      "componentType": 5126,
      "count": 4,
      "max": [
        0.99800997972488403,
        0.99800997972488403
      ],
      "min": [
        0.0019900000188499689,
        0.0019900000188499689
      ],
      "type": "VEC2"
    },
    {
      "bufferView": 0,
      "byteOffset": 226176,
      "componentType": 5125,
      "count": 6,
      "max": [
        3
      ],
      "min": [
        0
      ],
      "type": "SCALAR"
    },
    {
      "bufferView": 2,
      "byteOffset": 260376,
      "componentType": 5126,
      "count": 2102,
      "max": [
        8.5494499206542969,
        1.0760400295257568,
        -0
      ],
      "min": [
        -0.63248997926712036,
        -1.0194400548934937,
        -5.8842902183532715
      ],
      "type": "VEC3"
    },
    {
      "bufferView": 2,
      "byteOffset": 285600,
      "componentType": 5126,
      "count": 2102,
      "max": [
        0.94970273971557617,
        1,
        1
      ],
      "min": [
        -1,
        -1,
        -1
      ],
      "type": "VEC3"
    },
    {
      "bufferView": 3,
      "byteOffset": 173584,
      "componentType": 5126,
      "count": 2102,
      "max": [
        1,
        0.75057458877563477,
        0.99636608362197876,
        1
      ],
      "min": [
        -0.99953770637512207,
        -1,
        -0.99622267484664917,
        -1
      ],
      "type": "VEC4"
    },
    {
      "bufferView": 1,
      "byteOffset": 86792,
      "componentType": 5126,
      "count": 2102,
      "max": [
        0.9673200249671936,
        0.99498999118804932
      ],
      "min": [
        0.00419999985024333,
        0.018780000507831573
      ],
      "type": "VEC2"
    },
    {
      "bufferView": 0,
      "byteOffset": 226200,
      "componentType": 5125,
      "count": 3144,
      "max": [
        2101
      ],
      "min": [
        0
      ],
      "type": "SCALAR"
    }
  ],
  "asset": {
    "generator": "Sketchfab (OSG glTF plugin)",
    "version": "2.0"
  },
  "bufferViews": [
    {
      "buffer": 0,
      "byteLength": 238776,
      "byteOffset": 0,
      "name": "floatBufferViews",
      "target": 34963
    },
    {
      "buffer": 0,
      "byteLength": 103608,
      "byteOffset": 238776,
      "byteStride": 8,
      "name": "floatBufferViews",
      "target": 34962
    },
    {
      "buffer": 0,
      "byteLength": 310824,
      "byteOffset": 342384,
      "byteStride": 12,
      "name": "floatBufferViews",
      "target": 34962
    },
    {
      "buffer": 0,
      "byteLength": 207216,
      "byteOffset": 653208,
      "byteStride": 16,
      "name": "floatBufferViews",
      "target": 34962
    }
  ],
  "buffers": [
    {
      "byteLength": 860424,
      "uri": "scene.bin"
    }
  ],
  "extensionsRequired": [
    "KHR_materials_pbrSpecularGlossiness"
  ],
  "extensionsUsed": [
    "KHR_materials_pbrSpecularGlossiness"
  ],
  "images": [
    {
      "uri": "textures/Hair_diffuse.png"
    },
    {
      "uri": "textures/Body_diffuse.png"
    },
    {
      "uri": "textures/Face_diffuse.png"
    },
    {
      "uri": "textures/item_diffuse.png"
    },
    {
      "uri": "textures/grid_diffuse.png"
    },
    {
      "uri": "textures/Cube_diffuse.png"
    }
  ],
  "materials": [
    {
      "alphaCutoff": 0.5,
      "alphaMode": "BLEND",
      "doubleSided": true,
      "emissiveFactor": [
        0,
        0,
        0
      ],
      "extensions": {
        "KHR_materials_pbrSpecularGlossiness": {
          "diffuseFactor": [
            1,
            1,
            1,
            0.90000000000000002
          ],
          "diffuseTexture": {
            "index": 3,
            "texCoord": 0
          },
          "glossinessFactor": 0,
          "specularFactor": [
            0.5,
            0.5,
            0.5
          ]
        }
      },
      "name": "item",
      "occlusionFactor": 1
    },
    {
      "alphaCutoff": 0.5,
      "alphaMode": "BLEND",
      "doubleSided": true,
      "emissiveFactor": [
        0,
        0,
        0
      ],
      "extensions": {
        "KHR_materials_pbrSpecularGlossiness": {
          "diffuseFactor": [
            1,
            1,
            1,
            1
          ],
          "diffuseTexture": {
            "index": 4,
            "texCoord": 0
          },
          "glossinessFactor": 0,
          "specularFactor": [
            0.5,
            0.5,
            0.5
          ]
        }
      },
      "name": "grid",
      "occlusionFactor": 1
    },
    {
      "doubleSided": true,
      "emissiveFactor": [
        0,
        0,
        0
      ],
      "extensions": {
        "KHR_materials_pbrSpecularGlossiness": {
          "diffuseFactor": [
            1,
            1,
            1,
            1
          ],
          "diffuseTexture": {
            "index": 5,
            "texCoord": 0
          },
          "glossinessFactor": 0,
          "specularFactor": [
            0.5,
            0.5,
            0.5
          ]
        }
      },
      "name": "Cube",
      "occlusionFactor": 1
    },
    {
      "doubleSided": true,
      "emissiveFactor": [
        0,
        0,
        0
      ],
      "extensions": {
        "KHR_materials_pbrSpecularGlossiness": {
          "diffuseFactor": [
            1,
            1,
            1,
            1
          ],
          "diffuseTexture": {
            "index": 0,
            "texCoord": 0
          },
          "glossinessFactor": 0,
          "specularFactor": [
            0.5,
            0.5,
            0.5
          ]
        }
      },
      "name": "Hair",
      "occlusionFactor": 1
    },
    {
      "doubleSided": true,
      "emissiveFactor": [
        0,
        0,
        0
      ],
      "extensions": {
        "KHR_materials_pbrSpecularGlossiness": {
          "diffuseFactor": [
            1,
            1,
            1,
            1
          ],
          "diffuseTexture": {
            "index": 2,
            "texCoord": 0
          },
          "glossinessFactor": 0,
          "specularFactor": [
            0.5,
            0.5,
            0.5
          ]
        }
      },
      "name": "Face",
      "occlusionFactor": 1
    },
    {
      "doubleSided": true,
      "emissiveFactor": [
        0,
        0,
        0
      ],
      "extensions": {
        "KHR_materials_pbrSpecularGlossiness": {
          "diffuseFactor": [
            1,
            1,
            1,
            1
          ],
          "diffuseTexture": {
            "index": 1,
            "texCoord": 0
          },
          "glossinessFactor": 0,
          "specularFactor": [
            0.5,
            0.5,
            0.5
          ]
        }
      },
      "name": "Body",
      "occlusionFactor": 1
    }
  ],
  "meshes": [
    {
      "name": "hair_0",
      "primitives": [
        {
          "attributes": {
            "NORMAL": 1,
            "POSITION": 0,
            "TANGENT": 2,
            "TEXCOORD_0": 3
          },
          "indices": 4,
          "material": 3,
          "mode": 4
        }
      ]
    },
    {
      "name": "hair_1",
      "primitives": [
        {
          "attributes": {
            "NORMAL": 6,
            "POSITION": 5,
            "TANGENT": 7,
            "TEXCOORD_0": 8
          },
          "indices": 9,
          "material": 4,
          "mode": 4
        }
      ]
    },
    {
      "name": "hair_2",
      "primitives": [
        {
          "attributes": {
            "NORMAL": 11,
            "POSITION": 10,
            "TANGENT": 12,
            "TEXCOORD_0": 13
          },
          "indices": 14,
          "material": 5,
          "mode": 4
        }
      ]
    },
    {
      "name": "Cube_0",
      "primitives": [
        {
          "attributes": {
            "NORMAL": 16,
            "POSITION": 15,
            "TANGENT": 17,
            "TEXCOORD_0": 18
          },
          "indices": 19,
          "material": 2,
          "mode": 4
        }
      ]
    },
    {
      "name": "grid_0",
      "primitives": [
        {
          "attributes": {
            "NORMAL": 21,
            "POSITION": 20,
            "TANGENT": 22,
            "TEXCOORD_0": 23
          },
          "indices": 24,
          "material": 1,
          "mode": 4
        }
      ]
    },
    {
      "name": "item_0",
      "primitives": [
        {
          "attributes": {
            "NORMAL": 26,
            "POSITION": 25,
            "TANGENT": 27,
            "TEXCOORD_0": 28
          },
          "indices": 29,
          "material": 0,
          "mode": 4
        }
      ]
    }
  ],
  "nodes": [
    {
      "children": [
        1
      ],
      "name": "RootNode (gltf orientation matrix)",
      "rotation": [
        -0.70710678118654746,
        -0,
        -0,
        0.70710678118654757
      ]
    },
    {
      "children": [
        2
      ],
      "name": "RootNode (model correction matrix)"
    },
    {
      "children": [
        3,
        8,
        11,
        14
      ],
      "name": "Root"
    },
    {
      "children": [
        7
      ],
      "matrix": [
        0.98764000000000007,
        -0.15672000000000003,
        0,
        0,
        0.15672000000000003,
        0.98764000000000007,
        0,
        0,
        0,
        0,
        1,
        0,
        0.066110000000000016,
        -0.0035700000000000011,
        0,
        1
      ],
      "name": "hair"
    },
    {
      "mesh": 0,
      "name": "hair_0"
    },
    {
      "mesh": 1,
      "name": "hair_1"
    },
    {
      "mesh": 2,
      "name": "hair_2"
    },
    {
      "children": [
        4,
        5,
        6
      ],
      "name": "Geode"
    },
    {
      "children": [
        10
      ],
      "matrix": [
        0.36386000000000007,
        -0.057740000000000007,
        0,
        0,
        0.057740000000000007,
        0.36386000000000007,
        0,
        0,
        0,
        0,
        0.36841000000000007,
        0,
        -0.045240000000000009,
        -0.83847000000000005,
        0.37504000000000004,
        1
      ],
      "name": "Cube"
    },
    {
      "mesh": 3,
      "name": "Cube_0"
    },
    {
      "children": [
        9
      ],
      "name": "Geode"
    },
    {
      "children": [
        13
      ],
      "matrix": [
        1.3179199999999998,
        0,
        0,
        0,
        0,
        1.3179199999999998,
        0,
        0,
        0,
        0,
        1.3179199999999998,
        0,
        0,
        -0.55810000000000004,
        0,
        1
      ],
      "name": "grid"
    },
    {
      "mesh": 4,
      "name": "grid_0"
    },
    {
      "children": [
        12
      ],
      "name": "Geode"
    },
    {
      "children": [
        16
      ],
      "matrix": [
        0.45051000000000002,
        0,
        0,
        0,
        0,
        -0,
        1.4515699999999998,
        0,
        0,
        -0.40984000000000004,
        -0,
        0,
        -1.7691800000000002,
        -2.1683500000000002,
        1.4758899999999997,
        1
      ],
      "name": "item"
    },
    {
      "mesh": 5,
      "name": "item_0"
    },
    {
      "children": [
        15
      ],
      "name": "Geode"
    }
  ],
  "samplers": [
    {
      "magFilter": 9729,
      "minFilter": 9987,
      "wrapS": 10497,
      "wrapT": 10497
    },
    {
      "magFilter": 9729,
      "minFilter": 9987,
      "wrapS": 33648,
      "wrapT": 33648
    },
    {
      "magFilter": 9729,
      "minFilter": 9987,
      "wrapS": 33648,
      "wrapT": 10497
    }
  ],
  "scene": 0,
  "scenes": [
    {
      "name": "OSG_Scene",
      "nodes": [
        0
      ]
    }
  ],
  "textures": [
    {
      "sampler": 0,
      "source": 0
    },
    {
      "sampler": 0,
      "source": 1
    },
    {
      "sampler": 0,
      "source": 2
    },
    {
      "sampler": 0,
      "source": 3
    },
    {
      "sampler": 1,
      "source": 4
    },
    {
      "sampler": 0,
      "source": 5
    }
  ]
}

